<svg width="38" height="38" viewBox="0 0 38 38" fill="none" xmlns="http://www.w3.org/2000/svg">
<circle cx="19" cy="19" r="19" fill="#563ECC"/>
<path d="M18.5 10C16.2829 10 14.4852 11.7963 14.4838 14.0134C14.4823 16.2305 16.2801 18.0282 18.4972 18.0297C20.7143 18.0297 22.512 16.2333 22.5134 14.0163V14.0134C22.5134 11.7963 20.7171 10 18.5 10Z" fill="white"/>
<path d="M24.7177 20.7823C23.2586 19.3188 21.2752 18.4972 19.2083 18.5H17.7917C13.4878 18.5 10 21.9878 10 26.2917C10 26.6827 10.3173 27 10.7083 27H26.2917C26.6827 27 27 26.6827 27 26.2917C27.0028 24.2248 26.1812 22.2414 24.7177 20.7823Z" fill="white"/>
</svg>
