<svg width="14" height="8" viewBox="0 0 14 8" fill="none" xmlns="http://www.w3.org/2000/svg">
<path d="M7.08904 7.99446C7.26446 7.97324 7.42441 7.89098 7.54824 7.76097L13.7396 1.39283C14.0595 1.10096 14.0879 0.596814 13.8067 0.267794C13.5229 -0.0612263 13.0328 -0.0904145 12.7129 0.198805C12.6871 0.220033 12.6639 0.246566 12.6432 0.270447L7.00133 6.07872L1.35683 0.275754C1.07564 -0.0559197 0.585489 -0.0904141 0.2656 0.198806C-0.0568688 0.488025 -0.0904055 0.992169 0.190787 1.32119C0.211425 1.34772 0.234643 1.3716 0.260441 1.39283L6.45184 7.76362C6.61953 7.93609 6.85428 8.02365 7.08904 7.99446Z" fill="white"/>
</svg>
