<svg width="36" height="36" viewBox="0 0 36 36" fill="none" xmlns="http://www.w3.org/2000/svg">
<circle cx="18" cy="18" r="18" fill="#563ECC"/>
<path d="M18.5 9.07222C21.5705 9.07222 21.933 9.08304 23.1449 9.13985C24.2649 9.19125 24.8736 9.37791 25.2793 9.53482C25.815 9.74312 26.1991 9.992 26.6022 10.3951C27.0053 10.7982 27.2542 11.1796 27.4625 11.7179C27.6194 12.1237 27.806 12.7324 27.8574 13.8524C27.9115 15.0643 27.9251 15.4295 27.9251 18.4973C27.9251 21.565 27.9143 21.9303 27.8574 23.1422C27.806 24.2622 27.6194 24.8709 27.4625 25.2766C27.2542 25.8123 27.0053 26.1964 26.6022 26.5995C26.1991 27.0026 25.8177 27.2515 25.2793 27.4598C24.8736 27.6167 24.2649 27.8033 23.1449 27.8547C21.933 27.9088 21.5705 27.9224 18.5 27.9224C15.4295 27.9224 15.067 27.9115 13.8551 27.8547C12.7351 27.8033 12.1264 27.6167 11.7207 27.4598C11.185 27.2515 10.8009 27.0026 10.3978 26.5995C9.99471 26.1964 9.74582 25.815 9.53752 25.2766C9.38062 24.8709 9.19395 24.2622 9.14255 23.1422C9.08845 21.9303 9.07492 21.565 9.07492 18.4973C9.07492 15.4295 9.08574 15.0643 9.14255 13.8524C9.19395 12.7324 9.38062 12.1237 9.53752 11.7179C9.74582 11.1823 9.99471 10.7982 10.3978 10.3951C10.8009 9.992 11.1823 9.74312 11.7207 9.53482C12.1264 9.37791 12.7351 9.19125 13.8551 9.13985C15.067 9.08574 15.4323 9.07222 18.5 9.07222ZM18.5 7C15.3781 7 14.9859 7.01353 13.7604 7.07034C12.5376 7.12715 11.7017 7.31922 10.9686 7.60598C10.2138 7.90085 9.57269 8.29311 8.93155 8.93155C8.29311 9.56998 7.89814 10.2111 7.60598 10.9686C7.32192 11.699 7.12715 12.5349 7.07034 13.7604C7.01353 14.9859 7 15.3781 7 18.5C7 21.6219 7.01353 22.0141 7.07034 23.2396C7.12715 24.4624 7.31922 25.2983 7.60598 26.0314C7.90085 26.7862 8.29311 27.4273 8.93155 28.0685C9.56998 28.7069 10.2111 29.1019 10.9686 29.394C11.699 29.6781 12.5349 29.8729 13.7604 29.9297C14.9859 29.9865 15.3781 30 18.5 30C21.6219 30 22.0141 29.9865 23.2396 29.9297C24.4624 29.8729 25.2983 29.6808 26.0314 29.394C26.7862 29.0992 27.4273 28.7069 28.0685 28.0685C28.7069 27.43 29.1019 26.7889 29.394 26.0314C29.6781 25.301 29.8729 24.4651 29.9297 23.2396C29.9865 22.0141 30 21.6219 30 18.5C30 15.3781 29.9865 14.9859 29.9297 13.7604C29.8729 12.5376 29.6808 11.7017 29.394 10.9686C29.0992 10.2138 28.7069 9.57269 28.0685 8.93155C27.43 8.29311 26.7889 7.89814 26.0314 7.60598C25.301 7.32192 24.4651 7.12715 23.2396 7.07034C22.0141 7.01353 21.6219 7 18.5 7Z" fill="white"/>
<path d="M18.5 13C15.4626 13 13 15.4626 13 18.5C13 21.5374 15.4626 24 18.5 24C21.5374 24 24 21.5374 24 18.5C24 15.4626 21.5374 13 18.5 13ZM18.5 22.0717C16.5289 22.0717 14.9283 20.4736 14.9283 18.5C14.9283 16.5264 16.5264 14.9283 18.5 14.9283C20.4736 14.9283 22.0717 16.5264 22.0717 18.5C22.0717 20.4736 20.4736 22.0717 18.5 22.0717Z" fill="white"/>
<path d="M24.5 14C25.3284 14 26 13.3284 26 12.5C26 11.6716 25.3284 11 24.5 11C23.6716 11 23 11.6716 23 12.5C23 13.3284 23.6716 14 24.5 14Z" fill="white"/>
</svg>
