<svg width="53" height="53" viewBox="0 0 53 53" fill="none" xmlns="http://www.w3.org/2000/svg">
<path fill-rule="evenodd" clip-rule="evenodd" d="M14.8444 0.833984H38.8835C46.6058 0.833984 52.9577 7.18589 52.9577 14.9081V38.8218C52.9577 46.5441 46.6058 52.896 38.8835 52.896H14.8444C7.12217 52.896 0.770264 46.5441 0.770264 38.8218V14.9081C0.770264 7.18589 7.12217 0.833984 14.8444 0.833984ZM40.8754 9.92657C42.4948 9.92657 43.8651 11.2969 43.8651 12.9162C43.8651 14.5356 42.4948 15.9059 40.8754 15.9059C39.1325 15.9059 37.8858 14.5356 37.8858 12.9162C37.8858 11.2969 39.1307 9.92657 40.8754 9.92657ZM26.8013 12.6654H26.9267C34.6489 12.6654 41.1262 19.1427 41.1262 26.865C41.1262 34.7108 34.6489 41.0645 26.9267 41.0645H26.8013C19.079 41.0645 12.7271 34.7126 12.7271 26.865C12.7271 19.1427 19.079 12.6654 26.8013 12.6654ZM26.8013 17.5234H26.9267C32.0336 17.5234 36.2682 21.758 36.2682 26.865C36.2682 32.0955 32.0336 36.3301 26.9267 36.3301H26.8013C21.6943 36.3301 17.4597 32.0955 17.4597 26.865C17.4597 21.758 21.6943 17.5234 26.8013 17.5234ZM14.9698 5.31758H38.7581C44.1141 5.31758 48.4723 9.67758 48.4723 15.0317V38.6964C48.4723 44.0524 44.1123 48.4106 38.7581 48.4106H14.9698C9.61386 48.4106 5.25567 44.0506 5.25567 38.6964V15.0317C5.25567 9.67577 9.61568 5.31758 14.9698 5.31758Z" fill="black"/>
</svg>
