<svg width="51" height="37" viewBox="0 0 51 37" fill="none" xmlns="http://www.w3.org/2000/svg">
<path fill-rule="evenodd" clip-rule="evenodd" d="M10.1324 1.5758C15.0249 1.18505 20.7989 0.98877 25.2025 0.98877C29.6062 0.98877 35.282 1.18505 40.2726 1.5758C46.0466 2.06469 48.9817 3.04428 49.765 8.81825C50.1558 11.4608 50.3521 15.0811 50.3521 18.7996C50.3521 22.518 50.1558 26.2365 49.765 28.7809C48.9817 34.653 46.0466 35.5326 40.2726 36.0233C35.282 36.5122 29.6062 36.6103 25.2025 36.6103C20.7989 36.6103 15.0249 36.5122 10.1324 36.0233C4.35846 35.5344 1.32518 34.653 0.541865 28.7809C0.247442 26.2365 0.0529785 22.518 0.0529785 18.7996C0.0529785 15.0811 0.24926 11.4608 0.541865 8.81825C1.32518 3.04428 4.35846 2.0665 10.1324 1.5758Z" fill="black"/>
<path fill-rule="evenodd" clip-rule="evenodd" d="M20.1138 11.2646L33.2265 18.7997L20.1138 26.4329V11.2646Z" fill="white"/>
</svg>
